/* XPM */
static char * collectibles_xpm[] = {
"64 64 365 2",
"  	c #FFFFFF",
". 	c #F7F9F9",
"+ 	c #EEF0F1",
"@ 	c #F4F5F5",
"# 	c #FAFAFA",
"$ 	c #B9C8CA",
"% 	c #7D969A",
"& 	c #889C9D",
"* 	c #C4CDCD",
"= 	c #F5F7F7",
"- 	c #FEFEFE",
"; 	c #A7BDBD",
"> 	c #5C8286",
", 	c #7FA4A4",
"' 	c #8CA9A7",
") 	c #B6C4C3",
"! 	c #E7ECEC",
"~ 	c #FEFFFF",
"{ 	c #FBFCFC",
"] 	c #E3E8E8",
"^ 	c #DFE6E5",
"/ 	c #E0E6E6",
"( 	c #EBEFEF",
"_ 	c #A5BCBA",
": 	c #618E8F",
"< 	c #99CBCA",
"[ 	c #A3D5D2",
"} 	c #84AEAB",
"| 	c #9DB5B4",
"1 	c #DAE1E2",
"2 	c #C5D0D2",
"3 	c #89A1A0",
"4 	c #7B9694",
"5 	c #A8BBBA",
"6 	c #FDFDFD",
"7 	c #A6BDBC",
"8 	c #588D8C",
"9 	c #8ACAC6",
"0 	c #A6EAE5",
"a 	c #96D8D3",
"b 	c #6BA4A2",
"c 	c #6B8E90",
"d 	c #72A0A0",
"e 	c #87C2BE",
"f 	c #8AC4BE",
"g 	c #5E938C",
"h 	c #89AAA4",
"i 	c #FCFDFD",
"j 	c #FDFEFE",
"k 	c #F8F9F9",
"l 	c #DFE5E5",
"m 	c #91B3B2",
"n 	c #4B8A89",
"o 	c #6AB4B1",
"p 	c #88D8D3",
"q 	c #84D2CE",
"r 	c #65ACAB",
"s 	c #5A9DA0",
"t 	c #77BCBB",
"u 	c #96DCD7",
"v 	c #90CEC7",
"w 	c #6A9A92",
"x 	c #99B3AC",
"y 	c #E4E9E8",
"z 	c #9BB2B1",
"A 	c #709797",
"B 	c #5F9696",
"C 	c #4D9595",
"D 	c #56A5A5",
"E 	c #6CBCBD",
"F 	c #75BEC2",
"G 	c #82C3CA",
"H 	c #83C6CE",
"I 	c #7BC0C4",
"J 	c #7ABBB9",
"K 	c #6EA29C",
"L 	c #A2B9B4",
"M 	c #D8E0DE",
"N 	c #D8DFDD",
"O 	c #A3BAB7",
"P 	c #84B6B3",
"Q 	c #95D1CF",
"R 	c #8ED4D3",
"S 	c #7CC9CA",
"T 	c #65B5B8",
"U 	c #59A5AB",
"V 	c #79B8C4",
"W 	c #A0D9E8",
"X 	c #9DDDEB",
"Y 	c #79BCC5",
"Z 	c #5B999B",
"` 	c #76A29F",
" .	c #C6D5D3",
"..	c #FCFCFC",
"+.	c #EDEFF0",
"@.	c #DDE1E2",
"#.	c #8CA89F",
"$.	c #7AA6A0",
"%.	c #88C0BD",
"&.	c #8ECFCC",
"*.	c #87CBCC",
"=.	c #73BBBE",
"-.	c #5FACB1",
";.	c #539FA9",
">.	c #6AADBD",
",.	c #87C4D8",
"'.	c #86CBDA",
").	c #76C0C9",
"!.	c #6CB1B2",
"~.	c #70A7A3",
"{.	c #A7C0BD",
"].	c #F0F3F2",
"^.	c #D6DBE1",
"/.	c #CACFD6",
"(.	c #A1AAB2",
"_.	c #8E9AA1",
":.	c #F9F9F9",
"<.	c #84A39D",
"[.	c #66928C",
"}.	c #60908E",
"|.	c #5F8E90",
"1.	c #558B8F",
"2.	c #4E9095",
"3.	c #66AEB4",
"4.	c #73BBC5",
"5.	c #67ADBB",
"6.	c #62A8B6",
"7.	c #74BDC5",
"8.	c #8FD5D7",
"9.	c #91CECA",
"0.	c #76A19B",
"a.	c #ACBFBA",
"b.	c #E6E9EC",
"c.	c #8094A7",
"d.	c #576E83",
"e.	c #71848F",
"f.	c #DCDFE1",
"g.	c #EDF0EF",
"h.	c #D3DCDA",
"i.	c #D3DCDB",
"j.	c #D2DBDB",
"k.	c #AEBFBD",
"l.	c #62918A",
"m.	c #8EC8C2",
"n.	c #A2DFDA",
"o.	c #74AFAF",
"p.	c #437E89",
"q.	c #56939D",
"r.	c #8DCBCF",
"s.	c #91CAC7",
"t.	c #64928B",
"u.	c #8EA9A2",
"v.	c #EDEFF2",
"w.	c #BFC8D0",
"x.	c #778CA0",
"y.	c #5E85A2",
"z.	c #5A7E98",
"A.	c #83969E",
"B.	c #F0F1F2",
"C.	c #D0D9D7",
"D.	c #669288",
"E.	c #96C9C0",
"F.	c #A8DED7",
"G.	c #7AAAA9",
"H.	c #436B79",
"I.	c #356070",
"J.	c #58868E",
"K.	c #648E8E",
"L.	c #6B8A87",
"M.	c #B0BFBB",
"N.	c #FDFDFE",
"O.	c #E8EBEF",
"P.	c #ABB6C5",
"Q.	c #6481A1",
"R.	c #618AAD",
"S.	c #668CA6",
"T.	c #8A9DAA",
"U.	c #D5DBDF",
"V.	c #D7DFDD",
"W.	c #7B9E96",
"X.	c #8AB3AC",
"Y.	c #88AFAA",
"Z.	c #82A2A4",
"`.	c #6B8497",
" +	c #546D7F",
".+	c #99AEB4",
"++	c #C1D0D1",
"@+	c #CDD7D7",
"#+	c #F9FAFA",
"$+	c #DBE0E4",
"%+	c #97A9BB",
"&+	c #5B88AD",
"*+	c #5C90C0",
"=+	c #4C769D",
"-+	c #8FA0AE",
";+	c #E1E6E9",
">+	c #F1F4F3",
",+	c #C1CFCB",
"'+	c #8EA7A1",
")+	c #A3B5B1",
"!+	c #C5D0D1",
"~+	c #8394A5",
"{+	c #647687",
"]+	c #C6CFD2",
"^+	c #CCD6DA",
"/+	c #849DB0",
"(+	c #5787AD",
"_+	c #5B9AC5",
":+	c #568EBC",
"<+	c #5B7995",
"[+	c #BAC1C5",
"}+	c #F6F8F8",
"|+	c #E3E7E6",
"1+	c #E9EDEC",
"2+	c #B1BAC2",
"3+	c #6C818F",
"4+	c #A8B3BB",
"5+	c #F0F2F3",
"6+	c #F5F6F6",
"7+	c #C4CCD1",
"8+	c #7392A8",
"9+	c #4D82A8",
"0+	c #5693BE",
"a+	c #5389B3",
"b+	c #5B819F",
"c+	c #98ABB7",
"d+	c #E8EAEB",
"e+	c #C3CAD0",
"f+	c #ABB5BC",
"g+	c #D7DCDE",
"h+	c #FBFBFC",
"i+	c #F4F5F6",
"j+	c #A0B0B7",
"k+	c #687E8E",
"l+	c #AAB2BA",
"m+	c #ADB7BF",
"n+	c #6F879C",
"o+	c #4D7CA8",
"p+	c #4C8DB9",
"q+	c #4C86AC",
"r+	c #6984A2",
"s+	c #D2D8DD",
"t+	c #F5F7F8",
"u+	c #909BA7",
"v+	c #54627A",
"w+	c #758296",
"x+	c #B2B9C3",
"y+	c #D0D4D8",
"z+	c #F3F5F7",
"A+	c #FAFBFB",
"B+	c #A6B6BD",
"C+	c #496A85",
"D+	c #6F859D",
"E+	c #61819E",
"F+	c #4E80A9",
"G+	c #5188B9",
"H+	c #4E7DA5",
"I+	c #8297AB",
"J+	c #CBD3D9",
"K+	c #F9FAFB",
"L+	c #E4E6E9",
"M+	c #989EAB",
"N+	c #505E7B",
"O+	c #425D85",
"P+	c #6680A0",
"Q+	c #9DAABF",
"R+	c #C4C9D3",
"S+	c #ECEDF0",
"T+	c #A7B4BE",
"U+	c #3B5C81",
"V+	c #3D648A",
"W+	c #4B80A9",
"X+	c #4B80AB",
"Y+	c #5A77A0",
"Z+	c #8F9DB0",
"`+	c #C8D0D7",
" @	c #EBEDEF",
".@	c #AEB6C1",
"+@	c #6583A3",
"@@	c #5583AB",
"#@	c #4D7FA6",
"$@	c #5A7FA4",
"%@	c #94A4B8",
"&@	c #D5DAE0",
"*@	c #A9B4C2",
"=@	c #3E5E8A",
"-@	c #406F9A",
";@	c #43799F",
">@	c #537A98",
",@	c #929EAF",
"'@	c #E6E7EB",
")@	c #F8F9FA",
"!@	c #F6F8F9",
"~@	c #AEBCC4",
"{@	c #618AA0",
"]@	c #528CB0",
"^@	c #5995C2",
"/@	c #5184AC",
"(@	c #7D95A8",
"_@	c #C7D0D2",
":@	c #F7F8F9",
"<@	c #3D5C88",
"[@	c #3C638B",
"}@	c #647F97",
"|@	c #9FAEB8",
"1@	c #E8EBED",
"2@	c #EAEEEE",
"3@	c #AABBC3",
"4@	c #6588A2",
"5@	c #4D83AF",
"6@	c #4C85B4",
"7@	c #3F6E93",
"8@	c #7C96A2",
"9@	c #DAE2E4",
"0@	c #A8B3C0",
"a@	c #435B81",
"b@	c #5E738D",
"c@	c #B8C1C8",
"d@	c #F1F3F4",
"e@	c #D3D9DF",
"f@	c #758DA6",
"g@	c #49709D",
"h@	c #3C6595",
"i@	c #5F80A3",
"j@	c #98AEBA",
"k@	c #8A9DAC",
"l@	c #6B7890",
"m@	c #D1D4D9",
"n@	c #D9DFE5",
"o@	c #8095AD",
"p@	c #496B9A",
"q@	c #3F6596",
"r@	c #517595",
"s@	c #608198",
"t@	c #738B9A",
"u@	c #D3D9DC",
"v@	c #F4F7F8",
"w@	c #BBCBD6",
"x@	c #7B94AE",
"y@	c #446793",
"z@	c #325983",
"A@	c #466985",
"B@	c #89A6B2",
"C@	c #D6DFE2",
"D@	c #FAFCFC",
"E@	c #E0E8EA",
"F@	c #A7BAC4",
"G@	c #68849F",
"H@	c #435F81",
"I@	c #435F7B",
"J@	c #89A0AE",
"K@	c #E0E6EA",
"L@	c #EBEFEE",
"M@	c #B0C0C3",
"N@	c #8CA3B1",
"O@	c #738BA1",
"P@	c #6E8498",
"Q@	c #99ABB6",
"R@	c #E2E7EA",
"S@	c #E3E8E9",
"T@	c #B5C2C9",
"U@	c #A5B5C2",
"V@	c #A7B7C0",
"W@	c #CBD3D4",
"X@	c #F6F7F8",
"                                                                                                                                ",
"                                                                                                                                ",
"                                                                                                                                ",
"                                                                                                                                ",
"                                                                                                                                ",
"                                                                                                                                ",
"                                                                                                                                ",
"                                                                                                                                ",
"                                                                                                                                ",
"                                                                                                                                ",
"                                                                                                                                ",
"                                                                                                                                ",
"                                                                                                                                ",
"                                                                                                                                ",
"                                                                                                                                ",
"                                                                                                                                ",
"                                                                                                                                ",
"                                                                                                                                ",
"                                              . + @ #                                                                           ",
"                                              $ % & * = -                                                                       ",
"                                              ; > , ' ) ! ~ { ] ^ / ( -                                                         ",
"                                              _ : < [ } | 1 2 3 4 4 5 6                                                         ",
"                                              7 8 9 0 a b c d e f g h i                                                         ",
"                                        j k l m n o p q r s t u v w x 6                                                         ",
"                                      - y z A B C D E F G H I J K L M -                                                         ",
"                                      N O P Q R S T U V W X Y Z `  ...                +.@.6                                     ",
"                                      #.$.%.&.*.=.-.;.>.,.'.).!.~.{.].          { ^./.(._.:.                                    ",
"                                      M <.[.}.|.1.2.3.4.5.6.7.8.9.0.a.6       - b.c.d.e.f.-                                     ",
"                                      6 g.h.i.j.k.l.m.n.o.p.q.r.s.t.u.i     v.w.x.y.z.A.B.                                      ",
"                                          ~ ~ - C.D.E.F.G.H.I.J.K.L.M.6 N.O.P.Q.R.S.T.U.{                                       ",
"                                              - V.W.X.Y.Z.`. +.+++@+#+6 $+%+&+*+=+-+;+j                                         ",
"                                                >+,+'+)+!+~+{+]+      ^+/+(+_+:+<+[+                                            ",
"                                                  }+|+1+. 2+3+4+5+6+7+8+9+0+a+b+c+d+                                            ",
"                                      e+f+g+h+6     - -   i+j+k+l+m+n+o+p+q+r+s+t+-                                             ",
"                                      u+v+w+x+y+z+h+      A+B+C+D+E+F+G+H+I+J+K+                                                ",
"                                      L+M+N+O+P+Q+R+S+6   A+T+U+V+W+X+Y+Z+`+.                                                   ",
"                                      -  @.@+@@@#@$@%@&@{ h+*@=@-@;@>@,@'@)@                                                    ",
"                                          !@~@{@]@^@/@(@_@:@*@<@[@}@|@1@                                                        ",
"                                            2@3@4@5@6@7@8@9@0@a@b@c@d@                                                          ",
"                                            - { e@f@g@h@i@j@k@l@m@6                                                             ",
"                                                N.n@o@p@q@r@s@t@u@-                                                             ",
"                                                  v@w@x@y@z@A@B@C@i                                                             ",
"                                                  D@E@F@G@H@I@J@K@                                                              ",
"                                                    L@M@N@O@P@Q@R@                                                              ",
"                                                    ..S@T@U@V@W@X@                                                              ",
"                                                                                                                                ",
"                                                                                                                                ",
"                                                                                                                                ",
"                                                                                                                                ",
"                                                                                                                                ",
"                                                                                                                                ",
"                                                                                                                                ",
"                                                                                                                                ",
"                                                                                                                                ",
"                                                                                                                                ",
"                                                                                                                                ",
"                                                                                                                                ",
"                                                                                                                                ",
"                                                                                                                                ",
"                                                                                                                                ",
"                                                                                                                                ",
"                                                                                                                                ",
"                                                                                                                                ",
"                                                                                                                                "};
