/* XPM */
static char * floor_xpm[] = {
"64 64 603 2",
"  	c #D6E5E7",
". 	c #DAEAEC",
"+ 	c #E2F2F4",
"@ 	c #E7F8FA",
"# 	c #E9F9FC",
"$ 	c #EAFAFD",
"% 	c #EAF9FC",
"& 	c #EAF9FA",
"* 	c #E9F8F8",
"= 	c #E7F6F6",
"- 	c #E5F5F5",
"; 	c #E2F2F2",
"> 	c #DEEFEF",
", 	c #DBECEC",
"' 	c #D9EBEB",
") 	c #D8EAEA",
"! 	c #D8EBEB",
"~ 	c #D8ECEB",
"{ 	c #D8ECEC",
"] 	c #D8ECED",
"^ 	c #D7EBEC",
"/ 	c #D6EAEB",
"( 	c #D5E9EA",
"_ 	c #D2E6E7",
": 	c #CFE3E4",
"< 	c #CCE0E0",
"[ 	c #CADEDE",
"} 	c #CBDFDF",
"| 	c #CDE1E1",
"1 	c #D1E5E5",
"2 	c #D4E8E8",
"3 	c #D6EAEA",
"4 	c #DAEEEE",
"5 	c #DCF0F0",
"6 	c #DEF2F1",
"7 	c #D8EBEC",
"8 	c #D6E9EA",
"9 	c #D5E8E9",
"0 	c #D5E8E8",
"a 	c #D4E8E9",
"b 	c #D5E9E9",
"c 	c #D7EAEC",
"d 	c #DAEDEE",
"e 	c #DEF1F1",
"f 	c #E2F5F5",
"g 	c #E7F9F9",
"h 	c #EAFCFC",
"i 	c #EBFDFD",
"j 	c #EBFDFE",
"k 	c #EAFCFD",
"l 	c #E8FAFC",
"m 	c #E7F9FC",
"n 	c #E6F9FB",
"o 	c #DAE9EB",
"p 	c #DDEDEF",
"q 	c #E3F3F5",
"r 	c #E7F7F9",
"s 	c #E8F9FA",
"t 	c #E8F8F9",
"u 	c #E7F7F8",
"v 	c #E6F5F6",
"w 	c #E4F4F4",
"x 	c #E2F2F3",
"y 	c #E0F0F0",
"z 	c #DDEDED",
"A 	c #DAEBEB",
"B 	c #D7E9E9",
"C 	c #D7EAEA",
"D 	c #D7EBEA",
"E 	c #D7EBEB",
"F 	c #D3E7E9",
"G 	c #D1E5E6",
"H 	c #CEE2E3",
"I 	c #CCDFE0",
"J 	c #D1E5E4",
"K 	c #D3E7E7",
"L 	c #D9EDED",
"M 	c #DBEFEF",
"N 	c #D4E7E7",
"O 	c #D3E6E6",
"P 	c #D2E6E6",
"Q 	c #D3E6E7",
"R 	c #D4E7E8",
"S 	c #D6E9EB",
"T 	c #D9ECED",
"U 	c #E0F4F4",
"V 	c #E5F8F8",
"W 	c #E8FAFB",
"X 	c #E9FCFC",
"Y 	c #E8FBFC",
"Z 	c #E7F9FB",
"` 	c #E5F8FA",
" .	c #DFF0F0",
"..	c #E1F2F2",
"+.	c #E4F5F5",
"@.	c #E5F6F6",
"#.	c #E6F7F7",
"$.	c #E4F5F6",
"%.	c #E3F3F4",
"&.	c #E0F0F1",
"*.	c #DFEFEF",
"=.	c #DCEDED",
"-.	c #D7E9E8",
";.	c #D5E7E7",
">.	c #D3E7E6",
",.	c #D2E6E8",
"'.	c #CFE2E4",
").	c #CDE0E1",
"!.	c #D0E4E3",
"~.	c #D0E3E5",
"{.	c #CFE2E3",
"].	c #CEE1E3",
"^.	c #D1E4E6",
"/.	c #D2E5E7",
"(.	c #D3E6E9",
"_.	c #D9ECEE",
":.	c #DDF0F2",
"<.	c #E1F4F5",
"[.	c #E4F7F8",
"}.	c #E5F8F9",
"|.	c #E6F8FA",
"1.	c #E4F6F8",
"2.	c #E2F5F7",
"3.	c #E1F4F6",
"4.	c #E0F1F1",
"5.	c #E0F2F1",
"6.	c #E1F3F2",
"7.	c #E2F3F3",
"8.	c #E2F4F3",
"9.	c #E0F1F2",
"0.	c #DFF0F1",
"a.	c #DEEFF0",
"b.	c #DDEEEF",
"c.	c #DBECED",
"d.	c #D9EAEA",
"e.	c #D6E7E8",
"f.	c #D3E5E5",
"g.	c #D1E3E3",
"h.	c #CFE3E2",
"i.	c #CFE3E3",
"j.	c #D0E4E6",
"k.	c #CFE3E5",
"l.	c #CEE2E4",
"m.	c #CDE1E3",
"n.	c #CDE0E2",
"o.	c #CCE0E1",
"p.	c #CEE1E2",
"q.	c #D0E4E4",
"r.	c #D0E5E4",
"s.	c #D1E6E5",
"t.	c #D2E5E6",
"u.	c #CCDFE1",
"v.	c #CADEE0",
"w.	c #CADDDF",
"x.	c #CBDEE0",
"y.	c #CFE2E5",
"z.	c #D5E8EA",
"A.	c #E0F3F4",
"B.	c #E2F5F6",
"C.	c #DEF1F3",
"D.	c #DDF1F3",
"E.	c #DCEEED",
"F.	c #DDEEEE",
"G.	c #DDEFEE",
"H.	c #DCEEEE",
"I.	c #DCEDEE",
"J.	c #DBEDEE",
"K.	c #D9EBEC",
"L.	c #D6E8E9",
"M.	c #D2E4E5",
"N.	c #CFE1E2",
"O.	c #CCDFDF",
"P.	c #CBDEDE",
"Q.	c #CBDFE0",
"R.	c #CCE0E2",
"S.	c #CBDEE1",
"T.	c #D1E6E6",
"U.	c #C8DDDE",
"V.	c #C7DBDD",
"W.	c #C8DBDE",
"X.	c #C9DCDF",
"Y.	c #CADDE0",
"Z.	c #CBDFE2",
"`.	c #CEE1E4",
" +	c #D5E9EB",
".+	c #D8ECEE",
"++	c #DBEEF0",
"@+	c #DCF0F1",
"#+	c #DDF0F1",
"$+	c #DCEFF1",
"%+	c #DAEEF0",
"&+	c #D9ECEB",
"*+	c #DAECEC",
"=+	c #DAECED",
"-+	c #D9ECEC",
";+	c #D7EAEB",
">+	c #CBDFE1",
",+	c #C7DCDD",
"'+	c #C8DCDE",
")+	c #C9DEDF",
"!+	c #CBE0E1",
"~+	c #CCE1E3",
"{+	c #CDE2E3",
"]+	c #C9DDE0",
"^+	c #C7DCDF",
"/+	c #C8DDDF",
"(+	c #CADFE0",
"_+	c #CCE2E3",
":+	c #D0E5E6",
"<+	c #D2E8E8",
"[+	c #D4E9E9",
"}+	c #D2E7E8",
"|+	c #CFE4E4",
"1+	c #CEE3E3",
"2+	c #CEE3E4",
"3+	c #CCE1E2",
"4+	c #C6DBDD",
"5+	c #C6DADC",
"6+	c #C6DADD",
"7+	c #C6DBDE",
"8+	c #C7DBDF",
"9+	c #C8DCE0",
"0+	c #CBDEE2",
"a+	c #CEE1E5",
"b+	c #D1E5E8",
"c+	c #D4E8EA",
"d+	c #D6EAEC",
"e+	c #D9EDEE",
"f+	c #D7EBED",
"g+	c #D6E9E9",
"h+	c #D7E9EA",
"i+	c #D1E5E7",
"j+	c #CDE1E4",
"k+	c #C9DEE1",
"l+	c #C7DCDE",
"m+	c #C6DCDE",
"n+	c #C8DEE0",
"o+	c #C8DDE0",
"p+	c #C7DCE0",
"q+	c #C6DBDF",
"r+	c #CADFE2",
"s+	c #CDE3E4",
"t+	c #D1E6E7",
"u+	c #D3E9E9",
"v+	c #D4EAEA",
"w+	c #D3E8E9",
"x+	c #CFE4E5",
"y+	c #CCE2E4",
"z+	c #CBE0E2",
"A+	c #CADFE1",
"B+	c #C8DEE1",
"C+	c #C6DCDF",
"D+	c #C5DADD",
"E+	c #C5DADE",
"F+	c #C5DBDE",
"G+	c #CADEE2",
"H+	c #CCE1E4",
"I+	c #CFE4E7",
"J+	c #D1E6E8",
"K+	c #D4E9EA",
"L+	c #D3E8EA",
"M+	c #D4E7E9",
"N+	c #CEE3E5",
"O+	c #C4DADE",
"P+	c #C5DBDF",
"Q+	c #C7DDE0",
"R+	c #CDE2E4",
"S+	c #D0E6E7",
"T+	c #D2E8E9",
"U+	c #D3E9EA",
"V+	c #CAE0E2",
"W+	c #C4DADD",
"X+	c #CBE0E3",
"Y+	c #CEE4E5",
"Z+	c #CFE5E5",
"`+	c #CFE4E6",
" @	c #D3E6E8",
".@	c #D1E7E9",
"+@	c #CFE5E7",
"@@	c #C4DBDE",
"#@	c #C9DEE0",
"$@	c #C9DFE0",
"%@	c #CAE0E1",
"&@	c #CDE0E3",
"*@	c #CFE3E6",
"=@	c #CDE3E6",
"-@	c #CDE3E5",
";@	c #C9DFE2",
">@	c #C9DDE1",
",@	c #C9DEE2",
"'@	c #CADEE1",
")@	c #C5DADF",
"!@	c #C6DADE",
"~@	c #C3D9DD",
"{@	c #C3D9DC",
"]@	c #C4D9DD",
"^@	c #C2D7DB",
"/@	c #C0D5D9",
"(@	c #BFD4D8",
"_@	c #BED4D7",
":@	c #BFD5D8",
"<@	c #C1D6DA",
"[@	c #C3D8DC",
"}@	c #BED3D7",
"|@	c #BBD0D4",
"1@	c #BACFD3",
"2@	c #BAD0D3",
"3@	c #BDD2D6",
"4@	c #C2D8DB",
"5@	c #C2D8DC",
"6@	c #C1D7DA",
"7@	c #BCD2D5",
"8@	c #B9CED2",
"9@	c #B6CCCF",
"0@	c #B6CBCF",
"a@	c #B8CDD1",
"b@	c #BFD5D9",
"c@	c #C0D6DB",
"d@	c #C1D7DB",
"e@	c #C1D6D9",
"f@	c #BDD3D6",
"g@	c #C2D7DA",
"h@	c #B7CCD0",
"i@	c #B5CACE",
"j@	c #B5CBCE",
"k@	c #B6CCD0",
"l@	c #BACFD4",
"m@	c #BBD1D6",
"n@	c #BCD2D7",
"o@	c #B9CFD2",
"p@	c #BBD0D3",
"q@	c #BDD2D5",
"r@	c #BFD4D7",
"s@	c #C0D6D9",
"t@	c #B8CED1",
"u@	c #C4D9DE",
"v@	c #C3D8DB",
"w@	c #B4CACD",
"x@	c #B2C8CC",
"y@	c #B2C7CC",
"z@	c #B4C9CE",
"A@	c #B6CBD1",
"B@	c #B7CDD2",
"C@	c #B7CCCF",
"D@	c #BCD0D4",
"E@	c #BCD1D5",
"F@	c #B4CACE",
"G@	c #B3C8CC",
"H@	c #C2D7DC",
"I@	c #C3D8DD",
"J@	c #C0D5D8",
"K@	c #C1D7D9",
"L@	c #BDD3D5",
"M@	c #B3C9CC",
"N@	c #AFC5C8",
"O@	c #ADC2C8",
"P@	c #AFC4CA",
"Q@	c #B0C6CB",
"R@	c #B0C6C9",
"S@	c #B2C7CA",
"T@	c #B3C8CD",
"U@	c #B1C6CA",
"V@	c #AEC3C7",
"W@	c #AEC4C7",
"X@	c #B2C8CB",
"Y@	c #C2D8DA",
"Z@	c #BED4D6",
"`@	c #B8CDD0",
" #	c #B1C7CA",
".#	c #ACC1C5",
"+#	c #A8BDC2",
"@#	c #A7BCC2",
"##	c #A8BDC4",
"$#	c #A9BEC5",
"%#	c #ADC2C6",
"&#	c #ADC2C7",
"*#	c #AEC3C8",
"=#	c #AFC4C9",
"-#	c #B1C6CB",
";#	c #B0C5C9",
">#	c #AABFC3",
",#	c #AABFC2",
"'#	c #ACC2C5",
")#	c #BDD2D7",
"!#	c #C0D6DA",
"~#	c #BBD1D3",
"{#	c #B5CACD",
"]#	c #ADC2C5",
"^#	c #A5BBBF",
"/#	c #A1B5BB",
"(#	c #9FB4BA",
"_#	c #A0B5BC",
":#	c #A1B6BD",
"<#	c #ABC0C5",
"[#	c #ACC1C6",
"}#	c #AAC0C3",
"|#	c #A8BEC1",
"1#	c #A7BDC0",
"2#	c #A9BEC2",
"3#	c #C1D6DB",
"4#	c #BED3D8",
"5#	c #B4C9CD",
"6#	c #BCD1D6",
"7#	c #B7CDCF",
"8#	c #B0C5C8",
"9#	c #A7BDC1",
"0#	c #A0B6BA",
"a#	c #9BB0B6",
"b#	c #99ADB5",
"c#	c #99AEB5",
"d#	c #A8BDC3",
"e#	c #A9BEC4",
"f#	c #AABFC4",
"g#	c #A9BEC3",
"h#	c #A7BCC1",
"i#	c #A6BBC0",
"j#	c #BBD0D5",
"k#	c #BCD2D6",
"l#	c #BED4D8",
"m#	c #B5CACF",
"n#	c #B2C7CB",
"o#	c #B0C6CA",
"p#	c #B3C9CD",
"q#	c #BDD3D7",
"r#	c #B9CFD3",
"s#	c #B8CED2",
"t#	c #9AAFB6",
"u#	c #97ABB3",
"v#	c #95A9B1",
"w#	c #94A8B0",
"x#	c #A3B8BE",
"y#	c #A4B9BF",
"z#	c #A5BAC0",
"A#	c #B7CCD1",
"B#	c #B9CED3",
"C#	c #B8CDD3",
"D#	c #B8CDD2",
"E#	c #C4D9DF",
"F#	c #B1C7CC",
"G#	c #B6CBD0",
"H#	c #C0D5DA",
"I#	c #C3D9DE",
"J#	c #C1D6DC",
"K#	c #B6CCD1",
"L#	c #B0C5CB",
"M#	c #AFC4C8",
"N#	c #A2B8BD",
"O#	c #9DB2B8",
"P#	c #91A6AE",
"Q#	c #90A4AD",
"R#	c #9BB0B7",
"S#	c #9CB1B8",
"T#	c #9EB3BA",
"U#	c #9FB4BB",
"V#	c #A0B5BB",
"W#	c #BCD1D7",
"X#	c #BBD0D6",
"Y#	c #B9CED4",
"Z#	c #B5CAD0",
"`#	c #B8CED3",
" $	c #C2D7DD",
".$	c #C3D8DE",
"+$	c #C0D5DB",
"@$	c #B3C8CE",
"#$	c #B2C8CD",
"$$	c #B5CBD0",
"%$	c #BACFD5",
"&$	c #C4DADF",
"*$	c #C2D8DD",
"=$	c #ABC1C6",
"-$	c #A8BEC3",
";$	c #A8BDC1",
">$	c #A4B9BE",
",$	c #9CB1B7",
"'$	c #98ACB3",
")$	c #90A4AC",
"!$	c #8CA1AA",
"~$	c #8B9FA8",
"{$	c #93A9B0",
"]$	c #95AAB2",
"^$	c #98ADB4",
"/$	c #9EB3B9",
"($	c #A2B7BD",
"_$	c #ADC1C7",
":$	c #B9CDD3",
"<$	c #B2C7CD",
"[$	c #B4C9CF",
"}$	c #BFD4DA",
"|$	c #B7CCD3",
"1$	c #BED3D9",
"2$	c #BDD2D8",
"3$	c #A3B8BD",
"4$	c #A1B6BB",
"5$	c #9DB2B7",
"6$	c #98ADB2",
"7$	c #93A7AC",
"8$	c #8EA1A8",
"9$	c #8A9EA5",
"0$	c #879BA3",
"a$	c #8499A2",
"b$	c #8397A0",
"c$	c #8DA3AB",
"d$	c #90A6AD",
"e$	c #94AAB1",
"f$	c #9AAFB7",
"g$	c #A5BABF",
"h$	c #ABBFC5",
"i$	c #B2C6CC",
"j$	c #B7CCD2",
"k$	c #AABFC5",
"l$	c #9BAFB5",
"m$	c #96AAAF",
"n$	c #8FA2A8",
"o$	c #879BA0",
"p$	c #81949A",
"q$	c #7C8F97",
"r$	c #7A8D95",
"s$	c #798C95",
"t$	c #788C95",
"u$	c #899FA7",
"v$	c #8DA2AA",
"w$	c #92A7AF",
"x$	c #97ACB3",
"y$	c #98ADB3",
"z$	c #99ADB2",
"A$	c #9DB1B7",
"B$	c #A4B7BD",
"C$	c #AABEC3",
"D$	c #AEC3C9",
"E$	c #ACC1C7",
"F$	c #B6CCD2",
"G$	c #A6BBC1",
"H$	c #99AEB4",
"I$	c #94A8AE",
"J$	c #8EA1A7",
"K$	c #86999F",
"L$	c #7E9197",
"M$	c #798B91",
"N$	c #77888E",
"O$	c #76878E",
"P$	c #75878F",
"Q$	c #859BA4",
"R$	c #90A5AD",
"S$	c #95AAB1",
"T$	c #96ABB2",
"U$	c #94A9B0",
"V$	c #90A5AB",
"W$	c #8CA0A6",
"X$	c #899DA2",
"Y$	c #8A9EA3",
"Z$	c #90A4A9",
"`$	c #97ABB0",
" %	c #9EB2B8",
".%	c #A1B6BC",
"+%	c #AFC5CB",
"@%	c #B0C6CC",
"#%	c #B1C7CD",
"$%	c #B1C6CC",
"%%	c #ACC2C7",
"&%	c #B9CFD4",
"*%	c #BDD3D8",
"=%	c #B3C7CD",
"-%	c #A2B7BC",
";%	c #9EB3B8",
">%	c #9AAEB4",
",%	c #95A8AE",
"'%	c #86989E",
")%	c #7F9197",
"!%	c #7B8D92",
"~%	c #7A8A8F",
"{%	c #7C8B90",
"]%	c #7E8D91",
"^%	c #7E8E92",
"/%	c #7E8E93",
"(%	c #8399A2",
"_%	c #879DA5",
":%	c #8FA4AC",
"<%	c #92A7AD",
"[%	c #8BA0A6",
"}%	c #84999F",
"|%	c #7E9298",
"1%	c #83969C",
"2%	c #8A9EA4",
"3%	c #93A8AE",
"4%	c #AEC4CA",
"5%	c #AEC4C9",
"6%	c #ADC3C8",
"7%	c #A9BFC4",
"8%	c #97ACB2",
"9%	c #9AAFB5",
"0%	c #BAD0D5",
"a%	c #A0B5BA",
"b%	c #9FB4B9",
"c%	c #98ACB2",
"d%	c #91A4AA",
"e%	c #899CA2",
"f%	c #82949A",
"g%	c #7C8E93",
"h%	c #7A8B90",
"i%	c #808F93",
"j%	c #839295",
"k%	c #849397",
"l%	c #849497",
"  . + @ # $ % & * = - ; > , ' ) ! ! ~ ~ { { ] ] ^ ^ / ( _ : < [ } | 1 2 3 { 4 5 6 6 5 4 7 8 9 0 2 a b 8 c d e f g h i j k l m n ",
"o p q r s s t u v w x y z A ) B C C D E E ^ ^ ^ / / ( F G H I [ } | J K b E L M 5 5 M L E 9 N O P Q R 9 S T 5 U V W X X Y Z ` ` ",
" ...+.@.#.@.$.%.x &.*.=.A -.;.>.>.K 2 b 3 / / ( a F ,.G '.).I } I | !.P 2 b E { L 4 L E b Q ~.{.].'.^./.(.S _.:.<.[.}.|.}.1.2.3.",
"4.5.6.7.8.6.9.0.a.b.c.d.e.f.g.h.h.i.1 P 2 2 R _ j.k.l.m.n.o.).p.{.q.r.s.P K 2 3 E E 3 2 t.'.u.v.w.x.n.].y./.z._.:.A.3.B.<.A.C.D.",
"E.F.G.G.G.G.H.I.J.d K.L.M.N.O.P.[ Q.| i.1 t.^.'.R.S.v.v.x.o.i.1 P P T.1 q.q.1 K 2 2 K 1 H Q.U.V.V.W.X.Y.Z.`./. +.+++@+:.#+$+%+%+",
"' ' &+*+*+=+T T =+-+;+R : >+U.V.,+'+)+!+~+{+~+>+]+^+^+/+(+_+:+<+[+[+}+T.|+1+2+2+k.k.l.3+v.^+4+5+5+6+7+8+9+0+a+b+c+d+.+e+e+] f+f+",
"g+g+8 h+;+7 7 7 ! ;+a i+j+k+l+6+4+4+m+^+n+n+o+p+q+q+q+o+r+s+t+u+v+v+w+t+x+y+z+A+k+k+B+o+C+7+D+D+D+D+E+F+q+o+G+H+I+J+w+c+K+c+L+L+",
">.K R M+( 8 ;+3 8 a _ N+r+p+7+E+D+E+E+F+F+F+F+F+O+E+P+Q+r+R+S+T+v+U+<+:+s+V+o+p+C+q+7+F+F+O+O+W+W+O+O+O+P+C+Q+k+X+R+Y+x+Z+`+`+`+",
"i.: ~.i+ @F R R K G l.r+Q+P+O+O+O+O+O+O+O+O+O+O+O+O+F+C+B+X+N+S+.@.@+@y+V+Q+P+@@O+O+O+O+O+O+O+O+O+O+O+O+O+O+P+C+Q+#@$@%@%@%@%@%@",
"!+R.&@`.N+*@x+k.: {+r+o+P+O+O+O+O+O+O+O+O+O+O+O+O+O+E+F+C+k+X+R+=@-@y+;@Q+F+O+O+O+O+O+O+O+O+O+O+O+O+O+O+O+O+O+O+F+m+m+m+m+m+m+m+",
"/+]+>@,@G+r+r+r+'@>@o+q+E+O+O+O+O+O+O+O+O+O+O+O+O+O+E+E+7+^+B+B+;@,@B+Q+P+O+O+O+O+O+O+O+O+O+O+O+O+O+O+O+O+O+O+O+O+O+W+W+W+W+W+W+",
"q+8+8+p+p+p+p+p+^+q+q+P+P+P+E+E+O+O+O+O+O+O+O+O+O+O+E+E+q+q+C+C+p+p+C+P+P+P+P+P+P+P+O+O+O+O+O+O+O+O+O+O+O+O+O+O+O+O+O+O+O+O+O+O+",
"q+q+q+q+E+E+E+E+E+E+P+P+P+P+E+E+O+O+O+O+O+O+O+O+O+O+E+E+q+q+F+F+E+E+)@)@P+P+P+P+P+P+E+O+O+O+O+O+O+O+O+O+O+O+O+O+O+O+O+O+O+O+O+O+",
"E+E+E+E+E+E+E+E+E+E+E+E+!@!@E+E+O+O+O+O+O+O+O+O+O+O+E+E+E+E+E+E+E+E+!@!@!@!@!@!@!@E+E+E+O+O+O+O+O+O+O+O+O+O+O+O+O+O+O+O+O+O+O+O+",
"E+E+E+E+E+E+E+E+E+E+E+E+E+E+E+E+O+O+O+O+O+O+O+O+O+O+E+E+E+E+E+E+E+E+E+E+E+E+E+E+E+E+E+E+O+O+O+O+O+O+O+O+O+O+O+O+O+O+O+O+O+O+O+O+",
"O+O+O+O+O+O+O+O+O+O+O+O+O+O+O+O+O+O+O+O+O+O+O+O+O+O+O+O+O+O+O+O+O+O+O+E+E+E+E+E+E+O+O+O+O+O+O+O+O+O+O+O+O+O+O+O+O+O+O+O+O+O+O+O+",
"O+O+O+O+O+O+O+O+O+O+O+O+O+O+O+O+O+O+O+O+O+O+O+O+O+O+O+O+O+O+O+O+O+O+O+O+O+O+O+O+O+O+O+O+O+O+O+O+O+O+O+O+O+O+O+O+O+O+O+O+O+O+O+O+",
"O+O+O+O+O+O+O+O+O+O+O+O+O+O+O+O+O+O+O+O+O+O+O+O+O+O+O+O+O+O+O+O+O+O+O+O+O+O+O+O+O+O+O+O+O+O+O+O+O+O+O+O+O+O+O+O+O+O+O+O+O+O+O+O+",
"O+O+O+O+O+O+O+O+O+O+O+O+O+O+O+O+O+O+O+O+O+O+O+O+O+O+O+O+O+O+O+O+O+O+O+O+O+O+O+O+O+O+O+O+O+O+O+O+O+O+O+O+O+O+O+O+O+O+O+O+O+O+O+O+",
"O+O+O+O+O+O+O+O+O+O+O+O+O+O+O+O+O+O+O+O+O+O+O+O+O+O+O+O+O+O+O+O+O+O+O+O+O+O+O+O+O+O+O+O+O+O+O+O+O+O+O+O+O+O+O+O+O+O+O+O+O+O+O+O+",
"O+O+O+O+O+O+O+O+O+O+O+O+O+O+O+O+O+O+O+O+O+O+O+O+O+O+O+O+O+O+O+O+O+O+O+O+O+O+O+O+O+O+O+O+O+O+O+O+O+O+O+O+O+O+O+O+O+O+O+O+O+O+O+O+",
"O+O+O+O+O+O+O+O+O+O+O+O+O+O+O+O+O+O+O+O+O+O+O+O+O+O+O+O+O+O+O+O+O+O+O+O+O+O+O+O+O+O+O+O+O+O+O+O+O+O+O+O+O+O+O+O+O+O+O+O+O+O+O+O+",
"O+O+O+O+O+O+O+O+O+O+O+O+O+O+O+O+O+O+O+O+O+O+O+O+O+O+O+O+O+O+O+O+O+O+O+O+O+O+O+O+O+O+O+O+O+O+O+O+O+O+O+O+O+O+O+O+O+O+O+O+O+O+O+O+",
"O+O+O+O+O+O+O+O+O+O+O+O+O+O+O+O+O+O+O+O+O+O+O+O+O+O+O+O+O+O+O+O+O+O+O+O+O+O+O+O+O+O+O+O+O+O+O+O+O+O+O+O+O+O+O+O+O+O+O+O+O+O+O+O+",
"O+O+O+O+O+O+O+O+O+O+O+O+O+O+O+O+O+O+O+O+O+O+O+O+O+O+O+O+O+O+O+O+O+O+O+O+O+O+O+O+O+O+O+O+O+O+O+O+O+O+O+O+O+O+O+O+O+O+O+O+O+O+O+O+",
"O+O+O+O+O+O+O+O+O+O+O+O+O+O+O+O+O+O+O+O+O+O+O+O+O+O+O+O+O+O+O+O+O+O+O+O+O+O+O+O+O+O+O+O+O+O+O+O+O+O+O+O+O+O+O+O+O+O+O+O+O+O+O+O+",
"O+O+O+O+O+O+O+O+O+O+O+O+O+O+O+O+O+O+O+O+O+O+O+O+O+O+O+O+O+O+O+O+O+O+O+O+O+O+O+O+O+O+O+O+O+O+O+O+O+O+O+O+O+O+O+O+O+O+O+O+O+O+O+O+",
"O+O+O+O+O+O+O+O+O+O+O+O+O+O+O+O+O+O+O+O+O+O+O+O+O+O+O+O+O+O+O+O+O+O+O+O+O+O+O+O+O+O+O+O+O+O+O+O+O+O+O+O+O+O+O+O+O+O+O+O+O+O+O+O+",
"O+O+O+O+O+O+O+O+O+O+O+O+O+O+O+O+O+O+O+O+O+O+O+O+O+O+O+O+O+O+O+O+O+O+O+O+O+O+O+O+O+O+O+O+O+O+O+O+O+O+O+O+O+O+O+O+O+O+O+O+W+W+E+E+",
"O+O+O+O+O+O+O+O+O+O+O+O+O+O+O+O+O+O+O+O+O+O+O+O+O+O+O+O+O+O+O+O+O+O+O+O+O+O+O+O+O+O+O+O+O+O+O+O+O+O+O+O+O+O+O+O+O+O+O+O+W+W+E+E+",
"O+O+O+O+O+O+O+O+O+O+O+O+O+O+O+O+O+O+O+O+O+O+O+O+O+O+O+O+O+O+O+O+O+O+O+O+O+O+O+O+O+O+O+O+O+O+O+O+O+O+O+O+O+O+O+O+O+O+O+O+O+O+F+F+",
"O+O+O+O+O+O+O+O+O+O+O+O+O+O+O+O+O+O+O+O+O+O+O+O+O+O+O+O+O+O+O+O+O+O+O+O+O+O+O+O+O+O+O+O+O+O+O+O+O+O+O+O+O+O+O+O+O+O+O+O+O+O+F+F+",
"O+O+O+O+O+O+O+O+O+O+O+O+O+O+O+O+O+O+O+O+O+O+O+O+O+O+O+O+O+O+O+O+O+O+O+O+O+O+O+O+O+O+O+O+O+O+O+O+O+O+O+O+O+O+O+O+O+O+O+O+O+O+O+O+",
"O+O+O+O+O+O+O+O+O+O+O+O+O+O+O+O+O+O+O+O+O+O+O+O+O+O+O+O+O+O+O+O+O+O+O+O+O+O+O+O+O+O+O+O+O+O+O+O+O+O+O+O+O+O+O+O+O+O+O+O+O+O+O+O+",
"O+O+O+O+O+O+O+O+O+O+O+O+O+O+O+O+O+O+O+O+O+O+O+O+O+O+O+O+O+O+O+O+O+O+O+O+O+O+O+O+O+O+O+O+O+O+O+O+O+O+O+O+O+O+O+O+O+O+O+O+O+O+O+O+",
"O+O+O+O+O+O+O+O+O+O+O+O+O+O+O+O+O+O+O+O+O+O+O+O+O+O+O+O+O+O+O+O+O+O+O+O+O+O+O+O+O+O+O+O+O+O+O+O+O+O+O+O+O+O+O+O+O+O+O+O+O+O+O+O+",
"O+O+O+O+O+O+O+O+O+O+O+O+O+O+O+O+O+O+O+O+O+O+O+O+O+O+O+O+O+O+O+O+O+O+O+O+O+O+O+O+O+O+O+O+O+O+O+O+O+O+O+O+O+O+O+O+O+O+O+O+O+O+O+O+",
"O+O+O+O+O+O+O+O+O+O+O+O+O+O+O+O+O+O+O+O+O+O+O+O+O+O+O+O+O+O+O+O+O+O+O+O+O+O+O+O+O+O+O+O+O+O+O+O+O+O+O+O+O+O+O+O+O+O+O+O+O+O+O+O+",
"O+O+O+O+O+O+O+O+O+O+O+O+O+O+O+O+O+O+O+O+O+O+O+O+O+O+O+O+O+O+O+O+O+O+O+O+O+O+O+O+O+O+O+O+O+O+O+O+O+O+O+O+O+O+O+O+O+O+O+O+O+O+O+O+",
"O+O+O+O+O+O+O+O+O+O+O+O+O+O+O+O+O+O+O+O+O+O+O+O+O+O+O+O+O+O+O+O+O+O+O+O+O+O+O+O+O+O+O+O+O+O+O+O+O+O+O+O+O+O+O+O+O+O+O+O+O+O+O+O+",
"O+O+O+O+O+O+O+O+O+O+O+O+O+O+O+O+O+O+O+O+O+O+O+O+O+O+O+O+O+O+O+O+O+O+O+O+O+O+O+O+O+O+O+O+O+O+O+O+O+O+O+O+O+O+O+O+O+O+O+O+O+O+O+O+",
"~@~@O+O+O+O+O+O+O+O+O+O+O+O+O+O+O+O+O+O+O+O+O+O+O+O+O+O+O+O+O+O+O+O+O+O+O+O+O+O+O+O+O+O+O+O+O+O+O+O+O+O+O+O+O+O+O+O+O+O+O+O+O+O+",
"~@~@O+O+O+O+O+O+O+O+O+O+O+O+O+O+O+O+O+O+O+O+O+O+O+O+O+O+O+O+O+O+O+O+O+O+O+O+O+O+O+O+O+O+O+O+O+O+O+O+O+O+O+O+O+O+O+O+O+O+O+O+O+O+",
"W+W+O+O+O+O+O+O+O+O+O+O+O+O+O+O+O+O+O+O+O+O+O+O+O+O+O+O+O+O+O+O+O+O+O+O+O+O+O+O+O+O+O+O+O+O+O+O+O+O+O+O+O+O+P+P+P+P+F+F+E+E+O+O+",
"W+W+O+O+O+O+O+O+O+O+O+O+O+O+O+O+O+O+O+O+O+O+O+O+O+O+O+O+O+O+O+O+O+O+O+O+O+O+O+O+O+O+O+O+O+O+O+O+O+O+O+O+O+O+P+P+P+P+F+F+E+E+O+O+",
"O+O+O+O+O+O+O+O+O+O+O+O+O+O+O+O+O+O+O+O+O+O+O+O+O+O+O+O+O+O+O+O+O+O+O+O+O+O+O+O+O+O+O+O+O+O+O+O+O+O+O+O+O+O+P+P+F+F+F+F+F+F+F+F+",
"O+O+O+O+O+O+O+O+O+O+O+O+O+O+O+O+O+O+O+O+O+O+O+O+O+O+O+O+O+O+O+O+O+O+O+O+O+O+O+O+O+O+O+O+O+O+O+O+O+O+O+O+O+~@~@{@{@{@]@W+F+F+F+F+",
"O+O+O+O+O+O+O+O+E+E+E+E+O+O+O+O+O+O+O+O+O+O+O+O+O+O+O+O+O+O+O+O+O+O+O+O+O+O+O+O+O+O+O+O+O+O+O+O+O+O+O+O+~@^@/@(@_@:@<@[@W+F+P+P+",
"~@W+O+O+O+O+O+O+E+W+]@]@]@]@O+O+O+O+O+O+O+O+O+O+O+O+O+O+O+O+O+O+O+O+O+O+O+O+O+O+O+O+O+O+O+O+O+O+O+O+O+O+~@<@}@|@1@2@3@/@^@~@O+O+",
"4@5@~@W+F+F+F+E+W+[@^@6@^@[@]@W+W+W+O+O+O+O+O+O+O+O+E+E+O+O+O+O+O+O+O+O+O+O+F+F+O+O+O+O+O+O+O+O+O+O+F+O+~@<@7@8@9@0@a@|@3@b@c@d@",
"_@:@e@4@{@W+W+]@^@/@f@f@:@g@{@W+W+W+O+O+O+O+O+O+O+O+]@]@]@O+O+O+O+O+O+O+O+O+W+W+W+W+O+O+O+O+O+O+O+O+F+F+]@6@_@2@h@i@j@k@a@l@m@n@",
"o@p@q@r@s@g@^@<@(@|@a@t@7@s@{@O+O+O+O+O+O+O+O+O+]@~@[@^@[@~@u@)@P+P+E+O+~@{@4@4@v@{@W+O+O+O+O+O+O+O+F+F+E+{@6@_@2@h@w@x@y@z@A@B@",
"w@j@C@8@D@3@}@E@a@F@G@w@2@:@{@O+O+O+O+O+O+O+O+O+]@[@<@/@/@<@H@I@~@{@{@4@d@s@:@J@<@v@]@O+O+O+~@~@~@]@E+F+F+W+{@K@L@a@M@N@O@O@P@Q@",
"R@R@S@T@0@h@h@i@U@V@W@X@o@:@{@O+O+O+O+O+O+O+O+O+~@^@(@}@3@}@(@b@b@:@:@:@_@f@f@_@/@^@~@W+O+~@5@d@d@^@]@E+F+F+W+Y@Z@`@ #.#+#@###$#",
"%#&#*#=#-#-#;#V@>#,#'#X@o@_@4@]@W+O+O+O+O+O+O+O+]@^@/@)#E@1@1@1@1@2@2@2@2@E@7@(@<@5@~@W+W+5@!#b@(@/@^@[@{@{@4@s@~#{#]#^#/#(#_#:#",
"<#<#[#&#&#[#}#|#1#2#%#G@8@f@/@d@4@{@W+O+O+O+E+E+E+I@3#4#|@h@i@5#5#w@j@9@t@|@}@!#H@~@W+O+~@5@b@}@6#3@}@b@s@s@:@7@7#8#9#0#a#b#c#c#",
"d#d#e#f#g#h#i#h#f#V@y@0@8@l@j#k#l#!#[@u@O+E+)@)@)@u@H@4#l@m#n#o#o#n#p#k@1@q#!#H@~@u@O+O+u@5@!#4#j#r#8@s#o@8@s#0@ #.#^#(#t#u#v#w#",
"x#y#z#z#y#x#y#+#*#T@A#1@B#C#D#D#l@q#!#I@u@E#)@E#u@I@3#)#D#z@F#-#F#p#G#B#)#H#5@I#O+O+O+O+O+I#J#4#l@K#p#F#Q@L#Q@M#<#h#N#O#b#v#P#Q#",
"R#S#T#U#(#V#x#d#P@G#l@W#X#Y#A@Z#A@`#n@H# $.$u@.$I@+$)#B#m#@$#$z@$$D#%$4#+$H@u@)@)@)@)@&$u@*$+$)#`#z@=#=$e#-$g#;$>$/#,$'$w#)$!$~$",
"{$]$^$t#S#/$($h#_$T@:$X#X#Y#Z#@$<$[$C#W#}$J#J#J#}$W#|$@$L#P@<$Z#C#X#1$3# $u@)@)@)@)@)@u@I@c@2$Y#Z#-#[#+#y#x#3$4$5$6$7$8$9$0$a$b$",
"c$d$e$^$f$S#/$4$g$h$i$Z#j$A@@$L#P@L#[$j$%$W#W#X#%$j$<$O@k$k$O@<$j$W#+$ $.$u@u@u@u@u@u@ $c@2$C#[$-#O@e#i#($V#/$l$m$n$o$p$q$r$s$t$",
"u$v$w$x$c#c#y$6$z$A$B$C$&#D$O@E$E$O@L#@$Z#F$j$A@Z#<$O@@#x#($G$E$@$Y#1$+$H@H@H@H@H@H@3#}$W#C#@$=#[#g#i#>$/#O#H$I$J$K$L$M$N$O$P$P$",
"Q$u$R$S$T$U$V$W$X$Y$Z$`$ %.%x#z#@#e#O@+%@%#%#%$%+%%%+#($,$a#/$g$O@[$&%)#4#4#4#4#4#*%n@%$j$=%D$e#G$>$-%4$;%>%,%J$'%)%!%~%{%]%^%/%",
"(%_%:%U$S$<%[%}%|%L$1%2%3%H$/$.%y#d#E$D$4%4%4%5%6%7%y#/$H$8%9%4$g#Q@j$j#6#6#m@m@m@0%&%j$[$P@k$z#($V#a%b%A$c%d%e%f%g%h%{%i%j%k%l%"};
